<svg xmlns="http://www.w3.org/2000/svg" width="62" height="62" viewBox="0 0 62 62"><g><g><g><path fill="#c0b790" d="M57.715 36.042c-6.666.953-14.164 1.502-21.673 1.686l-5.388 3.658-5.389-3.658c-7.509-.184-15.006-.733-21.673-1.686l-.254 3.575v10.812l.254 3.574c8.24-1.178 18.949-1.787 27.062-1.787 8.098 0 18.809.608 27.061 1.787l.255-3.574V39.617z"/></g><g><path fill="#213858" d="M57.97 50.429V39.617l-.255-3.575c-6.666.953-14.164 1.502-21.673 1.686l-5.388 3.658v10.83c8.098 0 18.809.608 27.061 1.787z"/></g><g><path fill="#7a6426" d="M30.654 0L0 14.49l14.489 5.916h32.33l14.489-5.916z"/></g><g><path fill="#082145" d="M61.308 14.489L30.654 0v20.405h16.165z"/></g><g><path fill="#7a6426" d="M0 45c0-4.97 1.567-9 3.5-9S7 40.03 7 45s-1.567 9-3.5 9S0 49.97 0 45z"/></g><g><path fill="#082145" d="M54 45c0-4.97 1.567-9 3.5-9s3.5 4.03 3.5 9-1.567 9-3.5 9-3.5-4.03-3.5-9z"/></g><g><path fill="#c0b790" d="M30.654 11.956l-16.165 8.45V32.45h32.33V20.405z"/></g><g><path fill="#213858" d="M46.819 20.405l-16.165-8.449V32.45h16.165z"/></g><g><path fill="#fff" d="M30.654 37.728c-1.798 0-3.596.043-5.389 0v23.57l5.389-5.39 5.388 5.39v-23.57c-1.792.043-3.59 0-5.388 0z"/></g><g><path fill="#f8f8f8" d="M36.042 37.728c-1.792.043-3.59 0-5.388 0v18.18l5.388 5.39z"/></g></g></g></svg>